<?xml version="1.0" encoding="UTF-8"?><svg id="Layer_1" xmlns="http://www.w3.org/2000/svg" viewBox="0 0 576 576"><defs><style>.cls-1{fill:#e26148;stroke-width:0px;}</style></defs><path class="cls-1" d="m47.45,286.05c0-74.79,50.09-123.83,126.27-123.83,35.83,0,65.74,8,91.14,21.22l-30.61,121.4h-.35c-52.87-103.31-80.7-126.61-105.4-126.61-15.3,0-27.13,11.83-27.13,39.65,0,88.7,72.35,161.4,146.44,161.4,9.74,0,21.91-1.39,28.52-4.52l.35.35c-16.7,29.92-54.61,51.48-96.7,51.48-80,0-132.53-58.44-132.53-140.53Z"/><path class="cls-1" d="m528.55,356.01c0,43.3-45.51,71.19-112.29,71.19h-147.16v-5.87h29.36v-238.54l-32.66-19.82h132.48c72.29,0,115.23,19.82,115.23,60.55,0,31.19-23.49,51.74-81.1,62.02,57.61,3.67,96.15,28.99,96.15,70.46Zm-149.36-187.16v114.5h6.61c29.72,0,43.3-19.82,43.3-57.25,0-31.56-9.91-57.25-44.04-57.25h-5.87Zm64.95,188.26c0-45.51-23.85-67.89-54.68-67.89h-10.27v132.11h7.71c40.73,0,57.25-21.29,57.25-64.22Z"/></svg>